<svg width="38" height="40" viewBox="0 0 38 40" fill="none" xmlns="http://www.w3.org/2000/svg">
<g clip-path="url(#clip0_104_1048)">
<path d="M12.6665 12.2959V18.7959L3.1665 10.6709L12.6665 2.5459V9.0459H20.5832C23.9426 9.0459 27.1644 10.4155 29.5399 12.8535C31.9153 15.2915 33.2498 18.5981 33.2498 22.0459C33.2498 25.4937 31.9153 28.8003 29.5399 31.2383C27.1644 33.6763 23.9426 35.0459 20.5832 35.0459H6.33317V31.7959H20.5832C23.1027 31.7959 25.5191 30.7687 27.3007 28.9402C29.0823 27.1117 30.0832 24.6318 30.0832 22.0459C30.0832 19.46 29.0823 16.9801 27.3007 15.1516C25.5191 13.3231 23.1027 12.2959 20.5832 12.2959H12.6665Z" fill="black"/>
</g>
<defs>
<clipPath id="clip0_104_1048">
<rect width="38" height="39" fill="white" transform="translate(0 0.920898)"/>
</clipPath>
</defs>
</svg>
