<svg width="15" height="16" viewBox="0 0 15 16" fill="none" xmlns="http://www.w3.org/2000/svg">
<g opacity="0.5">
<g opacity="0.5" clip-path="url(#clip0_104_879)">
<path d="M12.867 0.284255C12.8342 0.183113 12.7714 0.101522 12.6914 0.0564551C12.6114 0.0113883 12.5205 0.0063157 12.4376 0.0422926C12.3547 0.0782695 12.2862 0.152526 12.2463 0.249614C12.2064 0.346702 12.1982 0.459146 12.2234 0.563555C12.7474 2.43256 11.7072 3.82836 10.9142 4.57596L10.5938 4.00616C10.486 3.81506 10.2452 3.65616 10.0579 3.65336L8.25963 3.66316C8.03995 3.67139 7.82616 3.75314 7.64084 3.89976L2.34195 8.51065C2.21869 8.61829 2.13483 8.78215 2.10872 8.96635C2.0826 9.15055 2.11637 9.34008 2.20262 9.49346L4.61064 13.7691C4.79115 14.0876 5.07939 14.0491 5.33661 13.8265L10.6355 9.21486C10.7878 9.08116 10.9638 8.79276 11.0258 8.57226L11.5888 6.37076C11.6508 6.15096 11.613 5.81566 11.5053 5.62456L11.3101 5.27736C12.3751 4.26446 13.4807 2.47455 12.867 0.284255ZM10.4014 6.83485C10.3038 6.91965 10.1937 6.97975 10.0773 7.01171C9.96098 7.04368 9.84071 7.04688 9.72337 7.02114C9.60603 6.99539 9.49393 6.94121 9.39347 6.86169C9.29301 6.78216 9.20616 6.67885 9.13789 6.55765C8.99965 6.31241 8.94547 6.00913 8.98724 5.71436C9.02902 5.4196 9.16333 5.15745 9.3607 4.98546C9.51543 4.85093 9.70016 4.77975 9.88908 4.78189C10.078 4.78402 10.2617 4.85935 10.4144 4.99736C10.261 5.11216 10.1555 5.17936 10.1357 5.18986C10.0658 5.23123 10.0093 5.30085 9.97542 5.38731C9.94155 5.47377 9.93236 5.57193 9.94933 5.66573C9.96631 5.75952 10.0085 5.84338 10.0689 5.90356C10.1293 5.96374 10.2044 5.99667 10.2818 5.99695C10.3303 5.99695 10.38 5.98295 10.4268 5.95565C10.5362 5.89125 10.6536 5.81495 10.776 5.72465C10.8041 5.9347 10.7839 6.15034 10.7176 6.34675C10.6514 6.54316 10.5418 6.71236 10.4014 6.83485Z" fill="black"/>
</g>
</g>
<defs>
<clipPath id="clip0_104_879">
<rect width="14" height="14" fill="white"/>
</clipPath>
</defs>
</svg>
