<svg width="16" height="17" viewBox="0 0 16 17" fill="none" xmlns="http://www.w3.org/2000/svg">
<path d="M7.94715 10.0767C7.76139 10.0767 7.60556 10.0137 7.47968 9.88784C7.3538 9.76196 7.29107 9.60636 7.29151 9.42103C7.29151 9.23526 7.35445 9.07944 7.48033 8.95356C7.60622 8.82767 7.76182 8.76495 7.94715 8.76539C8.13292 8.76539 8.28874 8.82833 8.41462 8.95421C8.54051 9.0801 8.60323 9.2357 8.60279 9.42103C8.60279 9.60679 8.53985 9.76262 8.41397 9.8885C8.28808 10.0144 8.13248 10.0771 7.94715 10.0767ZM5.32459 10.0767C5.13882 10.0767 4.983 10.0137 4.85712 9.88784C4.73124 9.76196 4.66851 9.60636 4.66895 9.42103C4.66895 9.23526 4.73189 9.07944 4.85777 8.95356C4.98366 8.82767 5.13926 8.76495 5.32459 8.76539C5.51035 8.76539 5.66618 8.82833 5.79206 8.95421C5.91794 9.0801 5.98067 9.2357 5.98023 9.42103C5.98023 9.60679 5.91729 9.76262 5.79141 9.8885C5.66552 10.0144 5.50992 10.0771 5.32459 10.0767ZM10.5697 10.0767C10.3839 10.0767 10.2281 10.0137 10.1022 9.88784C9.97636 9.76196 9.91363 9.60636 9.91407 9.42103C9.91407 9.23526 9.97701 9.07944 10.1029 8.95356C10.2288 8.82767 10.3844 8.76495 10.5697 8.76539C10.7555 8.76539 10.9113 8.82833 11.0372 8.95421C11.1631 9.0801 11.2258 9.2357 11.2254 9.42103C11.2254 9.60679 11.1624 9.76262 11.0365 9.8885C10.9106 10.0144 10.755 10.0771 10.5697 10.0767ZM7.94715 12.6992C7.76139 12.6992 7.60556 12.6363 7.47968 12.5104C7.3538 12.3845 7.29107 12.2289 7.29151 12.0436C7.29151 11.8578 7.35445 11.702 7.48033 11.5761C7.60622 11.4502 7.76182 11.3875 7.94715 11.3879C8.13292 11.3879 8.28874 11.4509 8.41462 11.5768C8.54051 11.7027 8.60323 11.8583 8.60279 12.0436C8.60279 12.2294 8.53985 12.3852 8.41397 12.5111C8.28808 12.6369 8.13248 12.6997 7.94715 12.6992ZM5.32459 12.6992C5.13882 12.6992 4.983 12.6363 4.85712 12.5104C4.73124 12.3845 4.66851 12.2289 4.66895 12.0436C4.66895 11.8578 4.73189 11.702 4.85777 11.5761C4.98366 11.4502 5.13926 11.3875 5.32459 11.3879C5.51035 11.3879 5.66618 11.4509 5.79206 11.5768C5.91794 11.7027 5.98067 11.8583 5.98023 12.0436C5.98023 12.2294 5.91729 12.3852 5.79141 12.5111C5.66552 12.6369 5.50992 12.6997 5.32459 12.6992ZM10.5697 12.6992C10.3839 12.6992 10.2281 12.6363 10.1022 12.5104C9.97636 12.3845 9.91363 12.2289 9.91407 12.0436C9.91407 11.8578 9.97701 11.702 10.1029 11.5761C10.2288 11.4502 10.3844 11.3875 10.5697 11.3879C10.7555 11.3879 10.9113 11.4509 11.0372 11.5768C11.1631 11.7027 11.2258 11.8583 11.2254 12.0436C11.2254 12.2294 11.1624 12.3852 11.0365 12.5111C10.9106 12.6369 10.755 12.6997 10.5697 12.6992ZM3.35767 15.3218C2.99707 15.3218 2.68826 15.1933 2.43125 14.9363C2.17424 14.6793 2.04595 14.3707 2.04639 14.0105V4.83155C2.04639 4.47094 2.17489 4.16214 2.4319 3.90513C2.68892 3.64811 2.9975 3.51983 3.35767 3.52027H4.01331V2.20898H5.32459V3.52027H10.5697V2.20898H11.881V3.52027H12.5366C12.8972 3.52027 13.206 3.64877 13.4631 3.90578C13.7201 4.16279 13.8484 4.47138 13.8479 4.83155V14.0105C13.8479 14.3711 13.7194 14.6799 13.4624 14.9369C13.2054 15.1939 12.8968 15.3222 12.5366 15.3218H3.35767ZM3.35767 14.0105H12.5366V7.45411H3.35767V14.0105Z" fill="black" fill-opacity="0.5"/>
</svg>
