<svg width="15" height="16" viewBox="0 0 15 16" fill="none" xmlns="http://www.w3.org/2000/svg">
<path opacity="0.5" d="M7.29163 5.23694C5.84267 5.23694 4.66907 6.41054 4.66907 7.8595C4.66907 9.30847 5.84267 10.4821 7.29163 10.4821C8.7406 10.4821 9.91419 9.30847 9.91419 7.8595C9.91419 6.41054 8.7406 5.23694 7.29163 5.23694ZM13.1531 7.20386C13.0045 5.87431 12.4083 4.63476 11.4624 3.68878C10.5164 2.74279 9.27683 2.14659 7.94727 1.99808V1.3031C7.94727 0.942499 7.65224 0.647461 7.29163 0.647461C6.93103 0.647461 6.63599 0.942499 6.63599 1.3031V1.99808C5.30643 2.14659 4.06689 2.74279 3.1209 3.68878C2.17492 4.63476 1.57872 5.87431 1.43021 7.20386H0.73523C0.374628 7.20386 0.0795898 7.4989 0.0795898 7.8595C0.0795898 8.22011 0.374628 8.51514 0.73523 8.51514H1.43021C1.57872 9.8447 2.17492 11.0842 3.1209 12.0302C4.06689 12.9762 5.30643 13.5724 6.63599 13.7209V14.4159C6.63599 14.7765 6.93103 15.0715 7.29163 15.0715C7.65224 15.0715 7.94727 14.7765 7.94727 14.4159V13.7209C9.27683 13.5724 10.5164 12.9762 11.4624 12.0302C12.4083 11.0842 13.0045 9.8447 13.1531 8.51514H13.848C14.2086 8.51514 14.5037 8.22011 14.5037 7.8595C14.5037 7.4989 14.2086 7.20386 13.848 7.20386H13.1531ZM7.29163 12.449C4.75431 12.449 2.70215 10.3968 2.70215 7.8595C2.70215 5.32218 4.75431 3.27002 7.29163 3.27002C9.82896 3.27002 11.8811 5.32218 11.8811 7.8595C11.8811 10.3968 9.82896 12.449 7.29163 12.449Z" fill="black"/>
</svg>
