<svg width="17" height="16" viewBox="0 0 17 16" fill="none" xmlns="http://www.w3.org/2000/svg">
<g clip-path="url(#clip0_348_20)">
<path d="M14.8749 5.74375V1.9C14.8756 1.71623 14.8376 1.53415 14.7633 1.36421C14.6889 1.19428 14.5796 1.03984 14.4417 0.909762C14.3038 0.779682 14.1399 0.676522 13.9595 0.606204C13.7791 0.535886 13.5857 0.499794 13.3904 0.500001H9.30878C9.04114 0.500519 8.78451 0.600343 8.59458 0.777813L0.434578 8.45563C0.156274 8.7184 0 9.07429 0 9.44531C0 9.81634 0.156274 10.1722 0.434578 10.435L4.31934 14.0913C4.59844 14.3532 4.97654 14.5004 5.37072 14.5004C5.7649 14.5004 6.143 14.3532 6.4221 14.0913L14.5798 6.41594C14.7684 6.23722 14.8745 5.99566 14.8749 5.74375ZM11.6874 4.5C11.4773 4.5 11.2719 4.44135 11.0972 4.33147C10.9224 4.22159 10.7862 4.06541 10.7058 3.88268C10.6254 3.69996 10.6044 3.49889 10.6454 3.30491C10.6864 3.11093 10.7876 2.93275 10.9361 2.79289C11.0847 2.65304 11.2741 2.5578 11.4802 2.51922C11.6863 2.48063 11.8999 2.50043 12.0941 2.57612C12.2882 2.65181 12.4541 2.77998 12.5709 2.94443C12.6876 3.10888 12.7499 3.30222 12.7499 3.5C12.7499 3.76522 12.638 4.01957 12.4388 4.20711C12.2395 4.39464 11.9692 4.5 11.6874 4.5Z" fill="#808080"/>
<path d="M16.4686 2C16.3277 2 16.1926 2.05268 16.093 2.14645C15.9933 2.24021 15.9374 2.36739 15.9374 2.5V6.48031L7.26104 14.6466C7.20964 14.6925 7.16853 14.7477 7.14014 14.8089C7.11175 14.87 7.09665 14.9359 7.09575 15.0027C7.09484 15.0694 7.10813 15.1356 7.13485 15.1974C7.16157 15.2593 7.20116 15.3154 7.2513 15.3626C7.30144 15.4098 7.36111 15.4471 7.4268 15.4722C7.49248 15.4974 7.56285 15.5099 7.63375 15.509C7.70466 15.5082 7.77466 15.494 7.83964 15.4672C7.90462 15.4405 7.96326 15.4018 8.0121 15.3534L16.7113 7.16594C16.8039 7.07844 16.877 6.97452 16.9265 6.8602C16.9761 6.74589 17.001 6.62345 16.9999 6.5V2.5C16.9999 2.36739 16.9439 2.24021 16.8443 2.14645C16.7446 2.05268 16.6095 2 16.4686 2Z" fill="#808080"/>
</g>
<defs>
<clipPath id="clip0_348_20">
<rect width="17" height="16" fill="white"/>
</clipPath>
</defs>
</svg>
